<svg xmlns:xlink="http://www.w3.org/1999/xlink" xmlns="http://www.w3.org/2000/svg" class="css-ze2te4 css-qd6ojx" viewBox="0 0 130 121.81871197087351" width="130"  height="121.81871197087351" ><g transform="translate(-7.308626673766252, -14.617253347532504) scale(1.4617253347532504)" class="css-1hewzmx" fill="#5A5D9D"><g xmlns="http://www.w3.org/2000/svg" fill="#5A5D9D"><path d="M48.817,40.821c-0.414,2.024-1.221,3.897-2.317,5.552c0.778-0.047,1.562-0.078,2.356-0.078   c0.767,0,1.524,0.029,2.275,0.073C50.037,44.715,49.231,42.844,48.817,40.821z" fill="#5A5D9D"></path><path d="M93.936,49.702c0-7.717-5.459-14.117-12.639-15.413C78.382,20.457,64.959,10,48.829,10   C32.581,10,19.079,20.613,16.3,34.597C9.793,36.404,5,42.473,5,49.702c0,7.121,4.648,13.123,11.008,15.028   c-0.227,1.176-0.348,2.377-0.348,3.601c0,13.812,14.961,25.008,33.418,25.008c18.456,0,33.418-11.196,33.418-25.008   c0-1.155-0.113-2.291-0.316-3.404C88.918,63.283,93.936,57.1,93.936,49.702z M10.345,50.005c0-3.792,2.265-7.041,5.486-8.412   c0.305,5.018,1.964,9.708,4.669,13.769c-0.943,1.16-1.746,2.39-2.43,3.664C13.711,58.434,10.345,54.626,10.345,50.005z    M48.856,89.356c-15.89,0-28.771-9.64-28.771-21.531c0-6.058,3.348-11.527,8.729-15.439c-5.99-2.127-10.297-7.937-10.297-14.789   c0-8.652,6.856-15.667,15.314-15.667c7.376,0,13.532,5.337,14.985,12.442c1.454-7.105,7.609-12.442,14.986-12.442   c8.458,0,15.314,7.015,15.314,15.667c0,6.832-4.282,12.627-10.246,14.77c5.396,3.914,8.756,9.392,8.756,15.459   C77.628,79.717,64.747,89.356,48.856,89.356z M79.968,58.822c-0.73-1.323-1.589-2.597-2.598-3.795   c2.524-3.9,4.104-8.362,4.447-13.129c2.88,1.509,4.854,4.569,4.854,8.107C86.672,54.258,83.819,57.819,79.968,58.822z" fill="#FFFFFF"></path></g><ellipse xmlns="http://www.w3.org/2000/svg" cx="61.229" cy="37.76" rx="2.661" ry="3.021" fill="#FFFFFF"></ellipse><ellipse xmlns="http://www.w3.org/2000/svg" cx="37.185" cy="37.76" rx="2.661" ry="3.021" fill="#FFFFFF"></ellipse><path xmlns="http://www.w3.org/2000/svg" d="M51,77.091v-29.3c2-0.616,3.97-2.266,3.97-4.211c0-2.472-2.681-4.474-5.983-4.474c-3.302,0-5.97,2.002-5.97,4.474  c0,1.945,1.983,3.595,3.983,4.211v29.375c-2,0.491-4.077,1.752-4.077,3.235c0,1.91,2.8,3.458,6.259,3.458  c3.458,0,6.27-1.548,6.27-3.458C55.452,78.838,54,77.519,51,77.091z" fill="#FFFFFF"></path></g></svg>